<svg width="957" height="1620" xmlns="http://www.w3.org/2000/svg" xmlns:xlink="http://www.w3.org/1999/xlink" xml:space="preserve" overflow="hidden"><g transform="translate(-1721 -442)"><path d="M2251.22 454.527C2254.62 455.494 2258.02 456.46 2261.43 457.426 2273.87 460.976 2286.31 464.569 2298.74 468.175 2319.42 474.17 2340.12 479.894 2361.03 485.034 2376.36 488.807 2391.51 493.055 2406.64 497.567 2415.99 500.337 2425.06 502.852 2434.67 504.596 2463.09 510.064 2477.51 530.031 2495.27 551.227 2505.43 563.01 2515.78 574.59 2526.38 585.979 2536.82 597.246 2547.15 608.597 2557.4 620.041 2563.73 627.062 2570.12 634.021 2576.52 640.977 2592.92 658.843 2608.73 677.173 2624.48 695.616 2626.23 697.664 2626.23 697.664 2628.01 699.753 2629.13 701.09 2630.24 702.428 2631.39 703.806 2635.31 708.403 2635.31 708.403 2639.67 712.303 2654.25 726.508 2655.58 740.245 2657.06 759.964 2657.36 763.064 2657.65 766.165 2657.95 769.359 2658.72 777.574 2659.4 785.794 2660.07 794.019 2660.75 802.264 2661.52 810.501 2662.28 818.74 2664.88 847.179 2667.26 875.627 2668.7 904.15 2669.12 911.413 2669.12 911.413 2670.43 918.423 2671.92 927.534 2672.47 936.613 2672.95 945.819 2673.1 948.655 2673.1 948.655 2673.26 951.547 2673.48 955.54 2673.69 959.532 2673.9 963.525 2674.22 969.53 2674.55 975.535 2674.89 981.539 2675.41 991.092 2675.86 1000.65 2676.25 1010.21 2676.47 1014.97 2676.77 1019.73 2677.08 1024.49 2677.87 1043.09 2674.73 1053.76 2663.8 1068.72 2661.11 1072.69 2658.42 1076.67 2655.73 1080.64 2654.35 1082.65 2652.97 1084.65 2651.55 1086.71 2645.11 1096.29 2639.3 1106.22 2633.45 1116.17 2608.69 1157.8 2582.62 1198.64 2556.72 1239.57 2553.27 1245.03 2549.82 1250.51 2546.38 1255.98 2545.23 1257.8 2544.07 1259.63 2542.89 1261.51 2540.53 1265.26 2538.19 1269 2535.85 1272.76 2528.92 1283.83 2521.76 1294.69 2514.35 1305.44 2494.11 1335.17 2480.44 1361.09 2473 1396.22 2470.69 1406.44 2468.04 1416.54 2465.34 1426.66 2464.82 1428.62 2464.29 1430.58 2463.75 1432.6 2461.59 1440.72 2459.42 1448.83 2457.23 1456.93 2449.8 1484.28 2449.8 1484.28 2444.06 1512.03 2439.55 1537.63 2432.52 1550.61 2411.03 1566.06 2407.84 1568.25 2404.61 1570.4 2401.36 1572.5 2396.13 1576.05 2396.13 1576.05 2392.2 1580.54 2382.66 1590.78 2375.35 1594.36 2361.33 1595.35 2355.13 1595.47 2348.92 1595.49 2342.71 1595.44 2339.28 1595.47 2335.84 1595.51 2332.41 1595.55 2323.12 1595.65 2313.84 1595.64 2304.55 1595.61 2296.77 1595.59 2289 1595.62 2281.22 1595.65 2262.87 1595.72 2244.51 1595.71 2226.15 1595.64 2207.26 1595.58 2188.38 1595.65 2169.5 1595.79 2153.24 1595.91 2136.98 1595.94 2120.72 1595.91 2111.03 1595.89 2101.34 1595.9 2091.65 1595.99 2082.52 1596.07 2073.41 1596.05 2064.28 1595.94 2059.38 1595.91 2054.48 1595.99 2049.57 1596.07 2025.67 1595.63 2014.47 1587.62 1997.51 1571.42 1994.62 1569.46 1991.67 1567.59 1988.64 1565.85 1964.58 1550.12 1960.24 1529.98 1954.45 1502.62 1953.31 1496.94 1952.17 1491.26 1951.05 1485.57 1948.58 1474.37 1945.2 1463.55 1941.72 1452.63 1939.09 1444.33 1936.91 1436.03 1934.84 1427.57 1934.44 1425.99 1934.04 1424.42 1933.62 1422.79 1931.31 1413.56 1929.34 1404.35 1927.67 1394.98 1921.63 1362.96 1909.5 1340.49 1890.71 1314.12 1883.3 1303.52 1876.48 1292.56 1869.6 1281.62 1866.76 1277.13 1863.92 1272.65 1861.07 1268.17 1859.66 1265.94 1858.25 1263.72 1856.79 1261.43 1852.59 1254.8 1848.37 1248.19 1844.16 1241.58 1827.69 1215.75 1811.38 1189.84 1795.18 1163.85 1785.63 1148.54 1775.97 1133.31 1766.17 1118.16 1757.93 1105.38 1749.86 1092.49 1741.77 1079.62 1740.61 1077.77 1739.45 1075.92 1738.25 1074.01 1737.14 1072.24 1736.03 1070.46 1734.89 1068.63 1732.14 1064.38 1729.13 1060.3 1726.08 1056.27 1720.92 1047.25 1721.01 1041.3 1721.3 1030.95 1721.35 1029.16 1721.39 1027.36 1721.43 1025.51 1721.59 1019.72 1721.82 1013.93 1722.06 1008.14 1722.17 1004.47 1722.27 1000.8 1722.38 997.135 1723.5 964.441 1726.52 931.883 1729.41 899.309 1729.57 897.509 1729.73 895.708 1729.89 893.852 1730.05 892.06 1730.21 890.268 1730.37 888.422 1731.84 871.678 1733.08 854.919 1734.29 838.155 1735.61 820.214 1737.2 802.501 1740.3 784.762 1741.21 777.512 1741.49 770.849 1741.49 763.571 1741.89 738.192 1744.09 720.925 1762.53 702.473 1767.43 697.797 1772.41 693.239 1777.48 688.741 1785.58 681.345 1792.89 673.247 1800.29 665.152 1803.09 662.144 1805.89 659.138 1808.7 656.134 1816.79 647.414 1824.76 638.586 1832.69 629.711 1838.95 622.74 1845.29 615.842 1851.63 608.945 1858.78 601.172 1865.88 593.37 1872.77 585.374 1882.04 574.667 1891.74 564.368 1901.4 554.015 1909.82 544.978 1918.09 535.851 1926.08 526.438 1927.33 525.045 1928.57 523.652 1929.86 522.217 1931.62 520.237 1933.38 518.257 1935.19 516.216 1942.63 509.507 1947.4 507.634 1957.02 505.228 1959.97 504.469 1962.92 503.71 1965.95 502.928 1969.12 502.155 1972.29 501.383 1975.47 500.611 1978.74 499.78 1982.02 498.944 1985.3 498.105 1991.89 496.42 1998.49 494.758 2005.1 493.116 2017.95 489.912 2030.76 486.582 2043.57 483.235 2045.82 482.652 2048.07 482.069 2050.38 481.468 2065.14 477.622 2079.82 473.555 2094.47 469.334 2096.47 468.76 2098.48 468.186 2100.55 467.595 2110.17 464.839 2119.79 462.062 2129.39 459.219 2137.18 456.916 2144.98 454.644 2152.79 452.402 2157.32 451.087 2161.84 449.727 2166.36 448.366 2197.5 439.476 2220.79 445.786 2251.22 454.527Z" fill="#3739A9" fill-rule="evenodd"/><path d="M2190.87 442.066C2204.85 442.724 2217.91 444.997 2231.42 448.675 2232.98 449.099 2234.54 449.523 2236.14 449.959 2257.08 455.682 2277.93 461.748 2298.78 467.798 2319.46 473.792 2340.16 479.515 2361.07 484.654 2376.39 488.426 2391.54 492.673 2406.66 497.184 2416.02 499.955 2425.08 502.469 2434.7 504.212 2463.11 509.679 2477.53 529.643 2495.28 550.836 2505.44 562.617 2515.79 574.195 2526.39 585.582 2536.83 596.848 2547.16 608.197 2557.41 619.639 2563.73 626.659 2570.12 633.616 2576.52 640.572 2592.92 658.434 2608.73 676.761 2624.48 695.201 2625.64 696.566 2626.81 697.931 2628.01 699.337 2629.13 700.675 2630.24 702.012 2631.39 703.39 2635.3 707.986 2635.3 707.986 2639.66 711.886 2654.24 726.089 2655.57 739.824 2657.06 759.539 2657.35 762.639 2657.64 765.739 2657.94 768.933 2658.72 777.146 2659.4 785.365 2660.06 793.588 2660.74 801.832 2661.51 810.068 2662.28 818.305 2664.88 846.739 2667.25 875.183 2668.69 903.702 2669.12 910.964 2669.12 910.964 2670.42 917.972 2671.91 927.082 2672.46 936.159 2672.94 945.364 2673.1 948.199 2673.1 948.199 2673.26 951.091 2673.47 955.083 2673.69 959.075 2673.89 963.067 2674.21 969.071 2674.54 975.074 2674.88 981.077 2675.41 990.63 2675.85 1000.18 2676.24 1009.74 2676.46 1014.5 2676.76 1019.26 2677.07 1024.02 2677.86 1042.62 2674.72 1053.29 2663.8 1068.25 2661.1 1072.22 2658.41 1076.19 2655.73 1080.17 2653.66 1083.17 2653.66 1083.17 2651.55 1086.23 2645.11 1095.81 2639.29 1105.74 2633.45 1115.69 2609.81 1155.43 2584.96 1194.45 2560.23 1233.53 2555.57 1240.89 2550.93 1248.26 2546.3 1255.64 2532.53 1277.58 2518.58 1299.4 2504.49 1321.14 2502.1 1324.85 2502.1 1324.85 2499.66 1328.63 2497.44 1332.04 2497.44 1332.04 2495.18 1335.52 2493.86 1337.56 2492.54 1339.59 2491.18 1341.69 2490.14 1343.14 2489.1 1344.58 2488.04 1346.07 2487.24 1346.07 2486.44 1346.07 2485.62 1346.07 2485.17 1333.69 2486.71 1322.9 2489.85 1311.02 2494.73 1291.51 2498.29 1271.89 2501.58 1252.06 2503.61 1239.87 2505.87 1227.81 2508.64 1215.77 2511.07 1204.99 2513.05 1194.12 2515.14 1183.27 2517.01 1174.52 2519.31 1166.1 2521.86 1157.53 2492.18 1173.36 2462.69 1189.44 2433.68 1206.48 2431.28 1207.89 2428.87 1209.3 2426.4 1210.75 2421.74 1213.48 2417.09 1216.21 2412.44 1218.95 2402.83 1224.6 2393.21 1230.23 2383.55 1235.79 2382.01 1236.69 2380.47 1237.6 2378.88 1238.54 2370.86 1243.11 2367.1 1244.55 2357.57 1244.55 2353.15 1240.43 2353.15 1240.43 2348.36 1234.27 2346.46 1231.84 2344.55 1229.4 2342.59 1226.89 2340.33 1223.92 2338.08 1220.94 2335.83 1217.96 2333.89 1215.39 2333.89 1215.39 2331.91 1212.77 2324.36 1202.76 2316.84 1192.72 2309.35 1182.67 2299.59 1169.59 2289.71 1156.6 2279.81 1143.63 2264.79 1123.94 2249.87 1104.18 2235.05 1084.33 2230.5 1078.26 2225.94 1072.2 2221.38 1066.13 2214.98 1057.62 2208.64 1049.06 2202.36 1040.45 2200.96 1038.54 2199.55 1036.62 2198.11 1034.65 2195.18 1030.64 2192.26 1026.62 2189.35 1022.59 2182.82 1013.63 2176.32 1004.94 2168.7 996.879 2145.15 971.552 2136.11 940.877 2125.63 908.641 2120.28 892.22 2114.24 876.079 2108.13 859.925 2100.64 839.892 2093.54 819.801 2086.92 799.466 2079.14 775.801 2070.65 752.387 2062.22 728.947 2061.47 726.859 2060.72 724.771 2059.95 722.62 2057.78 716.58 2055.61 710.541 2053.43 704.502 2052.46 701.801 2052.46 701.801 2051.46 699.044 2050.84 697.321 2050.22 695.597 2049.58 693.821 2048.98 692.158 2048.38 690.496 2047.76 688.782 2046.49 685.344 2045.2 681.916 2043.88 678.499 2039.63 667.502 2037.06 659.366 2038.67 647.521 2043.1 640.099 2043.1 640.099 2049.24 632.716 2051.49 629.941 2053.74 627.165 2056 624.388 2057.15 622.998 2058.3 621.607 2059.48 620.175 2064.47 614.095 2069.23 607.847 2074 601.596 2076.01 598.989 2078.01 596.383 2080.01 593.778 2088.66 582.508 2097.26 571.203 2105.86 559.9 2107.52 557.721 2109.18 555.541 2110.89 553.295 2112.55 551.122 2114.2 548.949 2115.9 546.71 2117.54 544.558 2119.18 542.406 2120.87 540.189 2123.92 536.181 2126.97 532.172 2130.02 528.163 2150.82 500.844 2171.82 473.694 2193.29 446.901 2192.09 444.507 2192.09 444.507 2190.87 442.066Z" fill="#22C4E7" fill-rule="evenodd"/><path d="M1724.22 1039.16C1725.01 1041.55 1725.81 1043.95 1726.63 1046.41 1729.65 1046.97 1732.66 1047.53 1735.77 1048.11 1744.67 1049.76 1753.56 1051.48 1762.44 1053.22 1772.41 1055.17 1782.39 1056.96 1792.4 1058.66 1833.88 1066.12 1833.88 1066.12 1845.42 1079.23 1847.74 1082.77 1850.01 1086.35 1852.21 1089.97 1855.4 1093.23 1858.62 1096.45 1861.87 1099.65 1865.29 1103.74 1868.66 1107.88 1871.99 1112.05 1879.44 1121.28 1887.08 1130.21 1895.08 1138.97 1901.16 1145.64 1906.85 1152.25 1911.98 1159.68 1917.29 1167.21 1922.93 1173.08 1929.49 1179.5 1933.14 1183.6 1936.68 1187.78 1940.22 1191.98 1942.82 1195.06 1945.46 1198.1 1948.12 1201.11 1949.45 1202.61 1950.77 1204.11 1952.13 1205.66 1953.35 1207.02 1954.56 1208.38 1955.81 1209.79 1958.47 1213.37 1958.47 1213.37 1958.47 1218.21 1960.07 1218.21 1961.66 1218.21 1963.3 1218.21 1965.27 1221.24 1967.14 1224.33 1968.97 1227.44 1979.11 1241.31 1991.64 1242.14 2007.83 1244.68 2012.49 1245.52 2017.14 1246.37 2021.8 1247.23 2025.13 1247.85 2028.46 1248.46 2031.8 1249.06 2053.16 1252.95 2074.25 1258 2095.37 1262.97 2099.46 1263.93 2103.54 1264.88 2107.62 1265.83 2115.51 1267.67 2123.39 1269.51 2131.27 1271.36 2143.14 1274.13 2155.02 1276.86 2166.9 1279.57 2171.8 1280.7 2176.7 1281.84 2181.6 1283.01 2194.31 1286.04 2207.02 1288.84 2219.85 1291.28 2290.4 1304.79 2290.4 1304.79 2312.23 1334.97 2313.26 1336.51 2314.29 1338.05 2315.35 1339.64 2319.71 1346.12 2324.75 1351.98 2329.78 1357.95 2331.43 1360.03 2333.09 1362.11 2334.79 1364.25 2342.67 1373.85 2351.16 1382.86 2359.67 1391.91 2364.19 1397.27 2364.19 1397.27 2364.19 1402.1 2366.09 1401.14 2367.99 1400.18 2369.94 1399.18 2386.44 1390.84 2402.58 1382.71 2420.19 1377 2437.09 1371.49 2453.75 1364.75 2469.55 1356.58 2475.28 1353.71 2475.28 1353.71 2480.11 1353.71 2478.67 1370.1 2475.61 1385.4 2471.46 1401.3 2470.54 1404.92 2470.54 1404.92 2469.59 1408.61 2468.29 1413.7 2466.98 1418.78 2465.67 1423.86 2463.68 1431.53 2461.71 1439.2 2459.75 1446.87 2453.8 1470.08 2447.77 1493.23 2440.93 1516.19 2439.22 1522.5 2438.16 1528.63 2437.19 1535.09 2434.49 1547.84 2425.96 1553.55 2415.81 1560.89 2412.46 1563.44 2409.11 1565.99 2405.76 1568.55 2404.15 1569.73 2402.53 1570.91 2400.87 1572.12 2395.57 1576.11 2395.57 1576.11 2391.57 1580.7 2382.03 1590.9 2374.71 1594.44 2360.74 1595.44 2354.54 1595.56 2348.33 1595.58 2342.13 1595.53 2338.7 1595.56 2335.26 1595.59 2331.83 1595.64 2322.55 1595.74 2313.27 1595.73 2303.99 1595.69 2296.21 1595.67 2288.44 1595.7 2280.67 1595.74 2262.32 1595.81 2243.98 1595.8 2225.63 1595.73 2206.75 1595.66 2187.88 1595.74 2169.01 1595.88 2152.75 1596 2136.5 1596.03 2120.25 1596 2110.56 1595.98 2100.88 1595.99 2091.19 1596.08 2082.08 1596.16 2072.96 1596.14 2063.85 1596.03 2058.94 1596 2054.04 1596.08 2049.14 1596.16 2025.25 1595.72 2014.06 1587.7 1997.11 1571.48 1994.22 1569.53 1991.27 1567.65 1988.24 1565.91 1964.2 1550.17 1959.86 1530 1954.07 1502.62 1952.93 1496.94 1951.79 1491.25 1950.67 1485.56 1948.2 1474.35 1944.83 1463.52 1941.34 1452.59 1938.72 1444.28 1936.54 1435.98 1934.47 1427.51 1934.07 1425.93 1933.67 1424.35 1933.26 1422.72 1930.94 1413.48 1928.97 1404.26 1927.3 1394.88 1921.27 1362.84 1909.15 1340.35 1890.36 1313.96 1882.96 1303.35 1876.14 1292.38 1869.27 1281.42 1866.43 1276.94 1863.58 1272.45 1860.74 1267.96 1859.33 1265.74 1857.92 1263.51 1856.47 1261.22 1852.26 1254.59 1848.05 1247.97 1843.84 1241.35 1827.38 1215.5 1811.07 1189.57 1794.88 1163.55 1785.34 1148.23 1775.69 1132.99 1765.89 1117.82 1757.66 1105.03 1749.59 1092.13 1741.51 1079.25 1740.34 1077.4 1739.18 1075.54 1737.98 1073.64 1736.87 1071.87 1735.77 1070.11 1734.63 1068.29 1731.76 1063.82 1728.77 1059.45 1725.74 1055.09 1721.8 1048.83 1721.8 1048.83 1722.41 1043.09 1723.3 1041.14 1723.3 1041.14 1724.22 1039.16Z" fill="#482CA8" fill-rule="evenodd"/><path d="M2012.08 1621.3C2013.77 1621.28 2015.46 1621.27 2017.2 1621.26 2022.82 1621.22 2028.44 1621.26 2034.06 1621.3 2038.1 1621.29 2042.15 1621.27 2046.2 1621.26 2057.15 1621.22 2068.1 1621.25 2079.06 1621.29 2090.52 1621.32 2101.99 1621.31 2113.46 1621.3 2132.7 1621.29 2151.95 1621.33 2171.19 1621.38 2193.45 1621.45 2215.72 1621.45 2237.98 1621.42 2259.39 1621.4 2280.81 1621.41 2302.22 1621.44 2311.34 1621.46 2320.46 1621.46 2329.57 1621.45 2340.3 1621.44 2351.02 1621.46 2361.74 1621.51 2365.68 1621.53 2369.62 1621.53 2373.56 1621.51 2378.93 1621.5 2384.29 1621.53 2389.66 1621.57 2392.67 1621.58 2395.67 1621.58 2398.77 1621.59 2406.74 1622.6 2408.45 1623.71 2413.31 1629.75 2417.32 1631.42 2421.36 1633.03 2425.41 1634.59 2431.73 1640.89 2430.95 1645.48 2431.04 1654.08 2431.03 1655.97 2431.02 1657.85 2431.01 1659.8 2431.05 1661.67 2431.09 1663.55 2431.13 1665.48 2431.14 1679.2 2431.14 1679.2 2427.33 1684.69 2422.99 1687.72 2422.99 1687.72 2410.89 1687.72 2410.89 1698.88 2410.89 1710.04 2410.89 1721.54 2418.08 1722.73 2418.08 1722.73 2425.41 1723.95 2431.73 1730.26 2430.95 1734.85 2431.04 1743.45 2431.03 1745.33 2431.02 1747.22 2431.01 1749.16 2431.05 1751.04 2431.09 1752.91 2431.13 1754.85 2431.14 1768.57 2431.14 1768.57 2427.33 1774.06 2422.99 1777.09 2422.99 1777.09 2410.89 1777.09 2410.89 1788.25 2410.89 1799.41 2410.89 1810.9 2418.08 1812.1 2418.08 1812.1 2425.41 1813.32 2432.12 1820.01 2430.95 1824.66 2431.04 1833.79 2431.03 1835.8 2431.02 1837.81 2431.01 1839.89 2431.05 1841.9 2431.09 1843.91 2431.13 1845.98 2431.13 1847.91 2431.13 1849.83 2431.14 1851.81 2431.14 1853.58 2431.15 1855.34 2431.16 1857.16 2430.26 1861.62 2430.26 1861.62 2422.99 1866.45 2415.28 1866.76 2415.28 1866.76 2408.47 1866.45 2408.58 1867.8 2408.69 1869.14 2408.81 1870.53 2409.81 1891.79 2402.71 1903.58 2388.64 1919.14 2386.75 1921.15 2384.86 1923.17 2382.91 1925.24 2374.9 1933.94 2367.55 1943.11 2360.15 1952.33 2347.37 1967.59 2347.37 1967.59 2339.81 1968.84 2337.9 1968.73 2335.99 1968.62 2334.02 1968.5 2332.08 1968.41 2330.15 1968.33 2328.16 1968.24 2326.7 1968.13 2325.23 1968.01 2323.73 1967.9 2322.74 1970.45 2322.74 1970.45 2321.73 1973.05 2311.57 1997.83 2298.84 2023.18 2277.73 2040.36 2254.42 2049.71 2228.66 2047.33 2204.06 2045.77 2196.93 2045.39 2189.8 2045.33 2182.65 2045.27 2175.72 2045.2 2168.79 2045.01 2161.86 2044.77 2157 2044.61 2152.14 2044.49 2147.27 2044.37 2125.89 2042.98 2125.89 2042.98 2117.14 2035.6 2112.8 2030.12 2109.27 2024.7 2105.84 2018.62 2103.62 2015.2 2101.39 2011.79 2099.14 2008.38 2097.12 2005.11 2095.12 2001.83 2093.13 1998.54 2091.1 1995.23 2089.07 1991.92 2087.04 1988.61 2085.64 1986.34 2085.64 1986.34 2084.22 1984.03 2081.47 1979.61 2081.47 1979.61 2077.28 1974.29 2074.36 1970.31 2074.36 1970.31 2074.36 1965.48 2072.12 1965.94 2072.12 1965.94 2069.83 1966.42 2062.57 1967.27 2057.28 1967.24 2050.15 1965.48 2041.43 1957.72 2035.19 1948.33 2028.36 1938.91 2024.59 1934.64 2020.76 1930.41 2016.86 1926.23 1991.63 1898.55 1991.63 1898.55 1991.9 1878.08 1991.93 1874.81 1991.93 1874.81 1991.96 1871.48 1991.99 1869.82 1992.02 1868.16 1992.05 1866.45 1989.35 1866.6 1986.65 1866.75 1983.88 1866.91 1980.98 1866.76 1978.08 1866.61 1975.1 1866.45 1968.9 1857.17 1969.46 1849.43 1969.5 1838.68 1969.46 1836.81 1969.42 1834.95 1969.38 1833.03 1969.37 1819.42 1969.37 1819.42 1973.19 1813.94 1977.52 1810.9 1977.52 1810.9 1989.63 1810.9 1989.63 1799.74 1989.63 1788.59 1989.63 1777.09 1984.83 1776.29 1980.04 1775.49 1975.1 1774.67 1967.8 1767.39 1969.37 1759.21 1969.35 1749.46 1969.26 1746.65 1969.26 1746.65 1969.17 1743.78 1969.1 1730.11 1969.1 1730.11 1974.55 1723.87 1979.94 1721.54 1979.94 1721.54 1989.63 1721.54 1989.63 1710.38 1989.63 1699.22 1989.63 1687.72 1985.63 1687.72 1981.64 1687.72 1977.52 1687.72 1973.19 1684.69 1973.19 1684.69 1970.26 1680.48 1969.54 1673.42 1969.24 1666.99 1969.35 1659.95 1969.32 1658.08 1969.29 1656.22 1969.27 1654.29 1969.34 1640.68 1969.34 1640.68 1972.89 1635.81 1985.91 1625.58 1995.42 1621.3 2012.08 1621.3Z" stroke="#A6A6A6" stroke-width="27.5" stroke-miterlimit="8" fill="#C8CBCC" fill-rule="evenodd"/><path d="M2190.18 442.066C2204.17 442.724 2217.24 444.997 2230.75 448.675 2232.31 449.098 2233.88 449.522 2235.48 449.958 2256.44 455.682 2277.3 461.747 2298.16 467.796 2318.86 473.79 2339.57 479.513 2360.49 484.652 2375.83 488.424 2390.99 492.671 2406.12 497.182 2415.48 499.952 2424.55 502.466 2434.17 504.21 2462.61 509.676 2477.04 529.639 2494.8 550.831 2504.97 562.612 2515.33 574.189 2525.93 585.576 2536.38 596.841 2546.72 608.189 2556.97 619.631 2563.3 626.651 2569.7 633.608 2576.1 640.563 2592.51 658.425 2608.33 676.751 2624.08 695.189 2625.25 696.555 2626.42 697.92 2627.62 699.326 2628.74 700.663 2629.86 702 2631.01 703.378 2634.92 707.974 2634.92 707.974 2639.28 711.874 2653.87 726.076 2655.2 739.81 2656.69 759.525 2656.98 762.624 2657.27 765.724 2657.58 768.918 2658.35 777.131 2659.03 785.35 2659.69 793.572 2660.38 801.816 2661.15 810.051 2661.91 818.288 2664.51 846.721 2666.89 875.163 2668.33 903.681 2668.76 910.94 2668.76 910.94 2670.06 917.935 2671.56 927.134 2672.1 936.302 2672.58 945.596 2672.69 947.503 2672.79 949.411 2672.9 951.375 2673.12 955.398 2673.33 959.419 2673.54 963.442 2673.86 969.526 2674.19 975.608 2674.52 981.691 2675.56 1000.84 2676.42 1019.88 2676.13 1039.07 2649.45 1038.23 2623.72 1031.2 2597.85 1025.17 2591 1023.59 2584.14 1022.02 2577.28 1020.45 2572.73 1019.39 2568.18 1018.31 2563.64 1017.21 2552.11 1014.44 2540.67 1012 2528.95 1010.15 2496.17 1004.59 2496.17 1004.59 2486.31 993.661 2482.21 985.024 2479.64 976.554 2477.43 967.312 2476.48 964.069 2475.5 960.833 2474.51 957.605 2472.49 950.99 2470.56 944.358 2468.7 937.698 2464.32 922.462 2458.36 907.855 2452.5 893.14 2450.55 888.138 2448.61 883.134 2446.68 878.128 2445.37 874.751 2445.37 874.751 2444.03 871.306 2440.75 862.795 2437.55 854.253 2434.36 845.706 2424.25 818.975 2413.6 792.462 2402.93 765.945 2393.38 765.945 2389.76 769.348 2381.88 774.697 2380.54 775.604 2379.19 776.511 2377.8 777.446 2373.43 780.396 2369.07 783.367 2364.71 786.338 2360.22 789.37 2355.72 792.395 2351.23 795.421 2348.29 797.403 2345.34 799.388 2342.4 801.375 2329.73 809.93 2316.93 818.247 2304.03 826.446 2298.39 830.036 2292.79 833.66 2287.2 837.322 2285.63 838.344 2284.07 839.366 2282.45 840.418 2279.44 842.382 2276.44 844.354 2273.44 846.335 2263.25 852.957 2263.25 852.957 2257.88 852.957 2261.77 839.92 2267.46 828.125 2273.46 815.966 2274.53 813.78 2275.6 811.595 2276.7 809.344 2280.19 802.224 2283.69 795.112 2287.19 788 2289.61 783.077 2292.02 778.154 2294.44 773.231 2308.61 744.377 2322.85 715.553 2337.2 686.788 2337.99 685.217 2338.77 683.647 2339.58 682.029 2346.8 667.543 2354.08 653.105 2361.87 638.911 2362.93 636.973 2363.99 635.036 2365.08 633.04 2366.95 629.668 2368.85 626.312 2370.79 622.98 2374.26 616.758 2376.33 612.132 2376.43 604.95 2372.93 596.887 2367.99 592.72 2361.38 586.935 2360.1 585.798 2358.81 584.661 2357.49 583.49 2353.33 579.82 2349.12 576.197 2344.91 572.584 2343.51 571.376 2342.1 570.167 2340.65 568.921 2334.96 564.025 2329.25 559.137 2323.53 554.27 2312.27 544.678 2301.3 534.809 2290.39 524.811 2283.68 518.688 2276.85 512.713 2269.99 506.749 2264.51 501.946 2259.07 497.091 2253.65 492.219 2251.62 490.402 2249.59 488.586 2247.5 486.715 2242.84 482.458 2238.26 478.167 2233.73 473.78 2220.19 460.799 2208.2 450.787 2190.18 444.483 2190.18 443.685 2190.18 442.888 2190.18 442.066Z" fill="#1FE9F4" fill-rule="evenodd"/><path d="M2195.18 445.151C2180.68 464.642 2165.83 483.868 2151 503.114 2136.78 521.581 2122.66 540.114 2108.55 558.664 2099.38 570.712 2090.21 582.752 2081.01 594.77 2078.4 598.177 2075.8 601.589 2073.21 605.004 2067.45 612.588 2061.64 620.117 2055.64 627.514 2054.61 628.811 2053.58 630.108 2052.52 631.445 2049.82 634.841 2047.08 638.206 2044.34 641.568 2039.04 651.081 2039.29 659.538 2041.98 670.093 2043.83 675.791 2045.84 681.4 2047.93 687.015 2048.68 689.099 2049.43 691.184 2050.21 693.332 2052.64 700.067 2055.11 706.788 2057.59 713.509 2059.27 718.159 2060.96 722.809 2062.64 727.461 2066.68 738.599 2070.74 749.728 2074.82 760.851 2078.27 770.251 2081.7 779.657 2085.12 789.064 2086.58 793.056 2088.04 797.047 2089.5 801.038 2096.9 821.358 2103.85 841.837 2110.83 862.304 2119.72 888.216 2129.11 913.93 2138.69 939.595 2139.76 942.491 2140.84 945.386 2141.94 948.369 2142.9 950.934 2143.86 953.5 2144.85 956.143 2146.9 962.234 2146.9 962.234 2146.9 967.066 2138.49 965.249 2130.85 962.219 2122.92 958.911 2119.22 957.388 2119.22 957.388 2115.46 955.835 2108.68 952.75 2102.58 949.156 2096.21 945.32 2092.62 943.828 2089 942.419 2085.35 941.092 2075.22 937.17 2065.89 932.449 2056.38 927.198 2043.39 920.04 2030.38 914.347 2016.55 909.076 2001.27 902.871 1986.89 895.186 1972.42 887.313 1960.94 881.14 1949.27 876.083 1937.15 871.265 1926.59 866.671 1916.57 861.191 1906.53 855.564 1899.03 851.413 1891.8 848 1883.67 845.252 1873.46 841.557 1866.41 835.984 1858.43 828.735 1857.02 827.483 1855.6 826.232 1854.14 824.942 1839.36 811.802 1825 798.201 1810.64 784.609 1799.8 774.349 1788.74 764.336 1777.57 754.434 1775.81 752.874 1774.05 751.313 1772.24 749.706 1763.72 742.193 1755.13 734.853 1746.18 727.855 1750.09 718.369 1756.59 711.631 1763.53 704.297 1764.8 702.947 1766.06 701.597 1767.36 700.207 1771.55 695.721 1775.77 691.249 1779.98 686.779 1786.17 680.188 1792.35 673.591 1798.54 666.996 1800.09 665.345 1801.64 663.694 1803.23 661.993 1813.17 651.388 1822.98 640.678 1832.65 629.826 1838.88 622.883 1845.18 616.019 1851.49 609.156 1858.63 601.387 1865.72 593.588 1872.62 585.597 1881.88 574.895 1891.57 564.601 1901.22 554.253 1909.63 545.222 1917.89 536.099 1925.87 526.691 1927.12 525.299 1928.36 523.906 1929.65 522.472 1931.4 520.493 1933.16 518.513 1934.98 516.474 1942.41 509.769 1947.17 507.896 1956.78 505.492 1959.73 504.733 1962.67 503.974 1965.71 503.193 1968.87 502.42 1972.04 501.648 1975.21 500.877 1978.48 500.046 1981.76 499.211 1985.03 498.372 1991.62 496.688 1998.21 495.027 2004.82 493.386 2017.65 490.183 2030.45 486.855 2043.25 483.51 2045.49 482.929 2047.73 482.348 2050.04 481.749 2064.94 477.865 2079.76 473.741 2094.55 469.465 2114.38 463.741 2134.24 458.153 2154.15 452.702 2158.19 451.577 2158.19 451.577 2162.32 450.428 2166.11 449.395 2166.11 449.395 2169.99 448.341 2172.23 447.725 2174.48 447.109 2176.79 446.474 2183.11 445.152 2188.74 444.905 2195.18 445.151Z" fill="#2D71C2" fill-rule="evenodd"/><path d="M2147.11 969.145C2156.45 978.171 2164.7 987.681 2172.75 997.87 2174.64 1000.25 2174.64 1000.25 2176.58 1002.69 2188.48 1017.79 2199.83 1033.26 2211.09 1048.85 2230.16 1075.2 2249.52 1101.29 2269.56 1126.91 2281.35 1142.02 2292.71 1157.42 2304.02 1172.89 2321.92 1197.36 2340.45 1221.31 2359.48 1244.91 2389.67 1229.96 2418.98 1213.03 2448.17 1196.23 2464.58 1186.79 2481 1177.38 2497.5 1168.11 2500.25 1166.54 2500.25 1166.54 2503.06 1164.95 2515.79 1157.83 2515.79 1157.83 2521.18 1157.83 2519.24 1172.16 2516.81 1186.38 2514.24 1200.61 2513.59 1204.2 2513.59 1204.2 2512.93 1207.85 2510.8 1219.46 2508.55 1230.93 2505.49 1242.34 2501.05 1258.94 2498.47 1275.9 2495.7 1292.85 2493.62 1305.4 2490.97 1317.35 2487.39 1329.58 2486.39 1335.15 2485.48 1340.75 2484.68 1346.36 2484.07 1350.51 2484.07 1350.51 2483.45 1354.74 2483.16 1356.81 2482.86 1358.89 2482.56 1361.02 2481.77 1358.63 2480.97 1356.23 2480.15 1353.77 2478.77 1354.5 2477.39 1355.23 2475.97 1355.99 2461.69 1363.39 2447.2 1369.42 2432.15 1375.07 2423.91 1378.24 2415.91 1381.78 2407.89 1385.45 2402.88 1387.65 2397.82 1389.55 2392.67 1391.41 2386.78 1393.55 2382.28 1395.69 2376.83 1398.97 2371.55 1402.15 2371.55 1402.15 2364.31 1402.15 2360.31 1397.87 2360.31 1397.87 2355.86 1391.86 2348.17 1381.84 2340.16 1372.39 2331.58 1363.14 2324.1 1355.05 2316.64 1346.96 2309.41 1338.65 2308.16 1337.25 2306.91 1335.85 2305.63 1334.41 2301.56 1329.58 2301.56 1329.58 2298.48 1324.84 2285.43 1306.36 2266.34 1303.86 2245.6 1299.34 2241.71 1298.43 2237.81 1297.52 2233.91 1296.6 2223.84 1294.25 2213.76 1291.99 2203.66 1289.75 2196.33 1288.13 2189 1286.47 2181.68 1284.8 2165.85 1281.21 2150 1277.7 2134.15 1274.23 2117 1270.47 2099.88 1266.6 2082.77 1262.68 2079.19 1261.86 2079.19 1261.86 2075.53 1261.03 2066.06 1258.86 2056.6 1256.69 2047.14 1254.51 2012.81 1246.54 2012.81 1246.54 1978.18 1240.07 1984.2 1228.56 1990.56 1217.61 1998.14 1207.06 2007.05 1194.42 2015.06 1181.38 2022.97 1168.11 2038.43 1142.44 2054.35 1117.11 2070.49 1091.87 2077.55 1080.81 2084.57 1069.73 2091.6 1058.65 2100.37 1044.82 2109.15 1031 2117.96 1017.2 2120.28 1013.56 2120.28 1013.56 2122.65 1009.85 2125.62 1005.19 2128.59 1000.54 2131.56 995.886 2132.9 993.791 2134.23 991.695 2135.61 989.536 2136.78 987.696 2137.96 985.856 2139.17 983.96 2142.1 979.125 2144.67 974.242 2147.11 969.145Z" fill="#3F3FB0" fill-rule="evenodd"/><path d="M2149.18 969.307C2164.68 969.003 2164.68 969.003 2171.21 970.399 2181.54 972.358 2191.93 972.958 2202.41 973.733 2207.38 974.115 2212.34 974.497 2217.31 974.88 2221.23 975.178 2221.23 975.178 2225.22 975.482 2268.46 978.783 2311.63 982.437 2354.76 986.984 2376.97 989.32 2399.16 991.378 2421.45 992.841 2423.59 992.985 2425.74 993.129 2427.95 993.278 2438.14 993.958 2448.33 994.596 2458.53 995.149 2485.36 996.77 2510.31 1001.99 2536.31 1008.65 2548.68 1011.74 2561.13 1014.5 2573.58 1017.28 2577.41 1018.14 2577.41 1018.14 2581.32 1019.02 2586.5 1020.18 2591.68 1021.34 2596.86 1022.5 2604.83 1024.29 2612.8 1026.08 2620.77 1027.88 2625.89 1029.03 2631.01 1030.17 2636.13 1031.32 2639.67 1032.12 2639.67 1032.12 2643.27 1032.93 2654.21 1035.37 2665.09 1037.68 2676.18 1039.36 2674.63 1047.05 2671.93 1052.75 2667.86 1059.43 2666.64 1061.44 2665.43 1063.44 2664.18 1065.51 2662.9 1067.59 2661.63 1069.68 2660.31 1071.82 2658.5 1074.82 2658.5 1074.82 2656.65 1077.87 2647.94 1092.22 2639.12 1106.49 2630.32 1120.78 2625.62 1128.4 2620.93 1136.04 2616.25 1143.68 2596.73 1175.5 2576.93 1207.11 2556.8 1238.56 2551.85 1246.31 2546.95 1254.1 2542.05 1261.89 2529.55 1281.77 2516.87 1301.54 2504.09 1321.23 2502.49 1323.71 2500.89 1326.18 2499.25 1328.73 2497.77 1331 2496.29 1333.27 2494.77 1335.61 2493.44 1337.64 2492.12 1339.68 2490.76 1341.77 2489.72 1343.22 2488.69 1344.66 2487.62 1346.15 2486.82 1346.15 2486.02 1346.15 2485.2 1346.15 2484.75 1333.78 2486.29 1323 2489.43 1311.12 2494.32 1291.63 2497.88 1272.01 2501.17 1252.2 2503.2 1240.01 2505.47 1227.97 2508.23 1215.93 2510.67 1205.16 2512.65 1194.29 2514.74 1183.45 2516.61 1174.71 2518.91 1166.29 2521.46 1157.73 2491.76 1173.54 2462.25 1189.62 2433.23 1206.64 2429.62 1208.75 2429.62 1208.75 2425.94 1210.91 2421.29 1213.64 2416.63 1216.37 2411.97 1219.11 2402.36 1224.75 2392.73 1230.38 2383.06 1235.93 2381.52 1236.84 2379.98 1237.75 2378.39 1238.68 2370.37 1243.26 2366.6 1244.69 2357.08 1244.69 2352.65 1240.57 2352.65 1240.57 2347.86 1234.42 2345.95 1231.99 2344.05 1229.55 2342.08 1227.04 2339.82 1224.07 2337.57 1221.1 2335.32 1218.12 2334.02 1216.41 2332.73 1214.7 2331.4 1212.93 2323.84 1202.93 2316.32 1192.89 2308.82 1182.84 2299.06 1169.77 2289.17 1156.8 2279.27 1143.84 2264.23 1124.16 2249.31 1104.4 2234.48 1084.57 2229.93 1078.5 2225.36 1072.44 2220.79 1066.39 2214.37 1057.84 2208 1049.26 2201.68 1040.63 2187.07 1020.71 2172.39 1000.89 2156.91 981.627 2149.18 971.96 2149.18 971.96 2149.18 969.307Z" fill="#2E7DC7" fill-rule="evenodd"/><path d="M1724.22 1039.16C1725.01 1041.55 1725.81 1043.94 1726.63 1046.4 1729.65 1046.96 1732.66 1047.52 1735.77 1048.09 1744.67 1049.75 1753.55 1051.46 1762.43 1053.2 1772.4 1055.15 1782.38 1056.94 1792.39 1058.64 1833.85 1066.08 1833.85 1066.08 1845.39 1079.18 1847.71 1082.71 1849.98 1086.29 1852.18 1089.9 1855.36 1093.16 1858.59 1096.38 1861.84 1099.57 1865.25 1103.66 1868.62 1107.79 1871.95 1111.95 1879.4 1121.16 1887.04 1130.09 1895.04 1138.83 1901.12 1145.5 1906.81 1152.1 1911.94 1159.52 1917.24 1167.04 1922.88 1172.9 1929.44 1179.31 1933.09 1183.41 1936.63 1187.58 1940.17 1191.78 1942.77 1194.85 1945.4 1197.88 1948.07 1200.9 1949.39 1202.39 1950.72 1203.89 1952.08 1205.44 1953.29 1206.8 1954.51 1208.16 1955.76 1209.56 1958.42 1213.14 1958.42 1213.14 1958.42 1217.97 1960.01 1217.97 1961.6 1217.97 1963.25 1217.97 1972.3 1227.7 1978.76 1238.86 1984.44 1250.82 1990.8 1263.34 1998.38 1275.23 2005.68 1287.22 2009.44 1293.41 2013.2 1299.61 2016.95 1305.8 2034.58 1334.88 2052.38 1363.85 2070.31 1392.75 2074.57 1399.63 2078.83 1406.51 2083.08 1413.4 2084.52 1415.72 2085.95 1418.05 2087.43 1420.44 2090.19 1424.91 2092.95 1429.38 2095.71 1433.85 2097.57 1436.86 2097.57 1436.86 2099.46 1439.92 2101.1 1442.57 2101.1 1442.57 2102.77 1445.27 2108.57 1455.32 2108.57 1455.32 2119.25 1459.61 2120.98 1459.99 2122.71 1460.37 2124.5 1460.76 2133.16 1462.81 2141.31 1466.1 2149.61 1469.28 2164.17 1474.77 2178.79 1480.05 2193.51 1485.09 2195.83 1485.88 2195.83 1485.88 2198.19 1486.69 2205.87 1489.32 2213.56 1491.93 2221.25 1494.52 2237.03 1499.9 2252.41 1505.59 2267.46 1512.77 2261.26 1525.88 2253.14 1532.01 2240.91 1539.35 2220.74 1554.24 2200.68 1569.95 2182.96 1587.68 2246.7 1588.48 2310.44 1589.28 2376.11 1590.1 2376.11 1590.9 2376.11 1591.69 2376.11 1592.52 2330.61 1593.02 2285.11 1593.41 2239.61 1593.64 2218.48 1593.75 2197.35 1593.91 2176.22 1594.16 2157.79 1594.37 2139.37 1594.51 2120.94 1594.56 2111.19 1594.59 2101.45 1594.66 2091.7 1594.82 2082.5 1594.96 2073.31 1595.01 2064.12 1594.98 2060.76 1594.98 2057.4 1595.02 2054.05 1595.11 2031.38 1595.65 2019.09 1591.68 2002.48 1575.98 2000.69 1574.26 1998.89 1572.54 1997.05 1570.77 1992.51 1567.62 1992.51 1567.62 1988.18 1565.21 1964.14 1549.48 1959.8 1529.35 1954.02 1502 1952.87 1496.32 1951.74 1490.65 1950.62 1484.96 1948.15 1473.76 1944.78 1462.95 1941.29 1452.03 1938.66 1443.74 1936.49 1435.44 1934.42 1426.99 1934.02 1425.41 1933.62 1423.83 1933.21 1422.21 1930.89 1412.98 1928.92 1403.77 1927.26 1394.41 1921.22 1362.41 1909.1 1339.95 1890.32 1313.59 1882.92 1303 1876.11 1292.04 1869.23 1281.1 1866.39 1276.62 1863.55 1272.14 1860.71 1267.66 1859.3 1265.43 1857.89 1263.21 1856.44 1260.92 1852.23 1254.3 1848.02 1247.69 1843.81 1241.08 1827.35 1215.27 1811.05 1189.36 1794.86 1163.38 1785.32 1148.08 1775.67 1132.86 1765.88 1117.72 1757.65 1104.95 1749.59 1092.06 1741.5 1079.19 1740.34 1077.34 1739.18 1075.49 1737.98 1073.59 1736.87 1071.83 1735.76 1070.07 1734.62 1068.25 1731.76 1063.78 1728.77 1059.43 1725.73 1055.07 1721.8 1048.82 1721.8 1048.82 1722.41 1043.08 1723.3 1041.14 1723.3 1041.14 1724.22 1039.16Z" fill="#57179B" fill-rule="evenodd"/><path d="M2038.16 655.097C2049.68 664.651 2060.33 674.678 2070.75 685.414 2075.68 690.214 2080.67 694.737 2085.86 699.238 2098.2 709.938 2109.99 721.192 2121.82 732.44 2131.61 741.708 2141.56 750.724 2151.75 759.556 2159.74 766.59 2167.46 773.915 2175.21 781.23 2178.6 784.424 2182 787.618 2185.4 790.81 2187.88 793.14 2187.88 793.14 2190.41 795.516 2211.57 815.356 2233.22 834.476 2255.5 853.047 2306.39 828.617 2353.68 792.8 2400.39 761.314 2408.1 770.161 2411.59 780.057 2415.64 790.886 2416.37 792.806 2417.1 794.727 2417.86 796.706 2420.1 802.605 2422.33 808.512 2424.54 814.422 2425.84 817.871 2427.14 821.319 2428.44 824.767 2430.73 830.86 2433.01 836.959 2435.28 843.06 2439.82 855.209 2444.51 867.304 2449.17 879.407 2455.6 896.082 2462 912.763 2468.39 929.451 2470.17 934.073 2471.94 938.694 2473.72 943.313 2476.32 950.059 2478.9 956.811 2481.48 963.563 2482.28 965.62 2483.07 967.677 2483.89 969.796 2487.44 979.106 2490.69 987.978 2492.16 997.887 2455.89 998.991 2420.17 995.556 2384.09 992.154 2378.2 991.612 2372.3 991.071 2366.4 990.532 2344.89 988.559 2323.38 986.546 2301.88 984.471 2282.03 982.556 2262.18 980.695 2242.29 979.103 2239.57 978.885 2239.57 978.885 2236.79 978.661 2229.51 978.08 2222.23 977.503 2214.95 976.94 2192.04 975.161 2169.49 972.83 2146.83 968.919 2146.15 966.993 2145.47 965.068 2144.78 963.084 2141.54 953.912 2138.3 944.743 2135.06 935.576 2134.46 933.892 2133.87 932.208 2133.25 930.474 2124.9 906.898 2116.36 883.411 2107.59 859.987 2100.11 839.977 2093.01 819.915 2086.39 799.605 2078.62 775.971 2070.13 752.587 2061.71 729.177 2060.96 727.092 2060.21 725.007 2059.43 722.858 2057.26 716.826 2055.09 710.795 2052.91 704.764 2052.27 702.965 2051.62 701.166 2050.95 699.313 2050.33 697.591 2049.7 695.87 2049.06 694.096 2048.46 692.434 2047.87 690.773 2047.25 689.061 2045.98 685.634 2044.67 682.222 2043.33 678.826 2039.96 670.279 2038.16 664.413 2038.16 655.097Z" fill="#28B1E0" fill-rule="evenodd"/><path d="M2647.16 729.764C2652.87 738.312 2653.26 743.611 2654.41 753.781 2654.71 756.322 2654.71 756.322 2655.01 758.914 2655.64 764.501 2656.24 770.091 2656.84 775.682 2657.15 778.536 2657.15 778.536 2657.46 781.447 2658.76 793.552 2660 805.663 2661.21 817.778 2661.83 824.012 2662.46 830.246 2663.1 836.479 2665.33 858.589 2667.19 880.652 2668.34 902.845 2668.8 910.865 2668.8 910.865 2670.13 918.089 2671.64 927.252 2672.17 936.389 2672.65 945.648 2672.81 948.509 2672.81 948.509 2672.97 951.427 2673.18 955.449 2673.4 959.47 2673.61 963.492 2673.92 969.575 2674.26 975.657 2674.59 981.739 2675.63 1000.88 2676.49 1019.93 2676.19 1039.11 2649.5 1038.28 2623.75 1031.25 2597.87 1025.21 2591.01 1023.63 2584.15 1022.06 2577.29 1020.49 2572.73 1019.44 2568.18 1018.36 2563.63 1017.26 2552.09 1014.48 2540.64 1012.05 2528.92 1010.2 2496.12 1004.63 2496.12 1004.63 2486.25 993.709 2482.14 985.072 2479.58 976.603 2477.36 967.362 2476.41 964.12 2475.44 960.884 2474.44 957.656 2472.42 951.042 2470.49 944.411 2468.63 937.75 2464.25 922.516 2458.28 907.911 2452.41 893.198 2450.47 888.196 2448.53 883.193 2446.59 878.187 2445.72 875.936 2444.84 873.685 2443.94 871.366 2440.66 862.856 2437.46 854.314 2434.27 845.769 2432.51 841.133 2430.75 836.501 2428.98 831.872 2427.96 829.224 2426.95 826.576 2425.9 823.848 2423.04 816.467 2420.03 809.147 2417 801.833 2416.11 799.66 2415.22 797.488 2414.3 795.25 2412.51 790.908 2410.7 786.572 2408.87 782.246 2408.05 780.248 2407.23 778.251 2406.39 776.192 2405.64 774.405 2404.9 772.618 2404.13 770.777 2402.82 766.015 2402.82 766.015 2405.24 758.765 2407.06 758.544 2408.88 758.324 2410.75 758.096 2428.25 755.972 2445.74 753.842 2463.24 751.703 2472.22 750.606 2481.21 749.51 2490.19 748.421 2500.62 747.156 2511.05 745.884 2521.47 744.604 2523.19 744.394 2524.91 744.183 2526.68 743.966 2554.14 740.591 2581.52 736.84 2608.87 732.679 2636.12 728.621 2636.12 728.621 2647.16 729.764Z" fill="#20D8F0" fill-rule="evenodd"/><path d="M2152.18 974.145C2161.58 982.913 2169.04 992.923 2176.75 1003.16 2178.14 1005.01 2179.54 1006.85 2180.98 1008.76 2185.06 1014.14 2189.12 1019.53 2193.18 1024.93 2195.05 1027.41 2196.93 1029.9 2198.87 1032.46 2206.83 1043.06 2214.72 1053.7 2222.53 1064.41 2237.96 1085.53 2253.61 1106.41 2269.73 1127.01 2281.51 1142.12 2292.86 1157.51 2304.16 1172.98 2322.05 1197.44 2340.57 1221.37 2359.59 1244.97 2389.76 1230.03 2419.05 1213.1 2448.22 1196.31 2464.62 1186.87 2481.02 1177.46 2497.51 1168.2 2500.26 1166.63 2500.26 1166.63 2503.07 1165.04 2515.79 1157.92 2515.79 1157.92 2521.18 1157.92 2519.25 1172.25 2516.81 1186.46 2514.24 1200.69 2513.6 1204.27 2513.6 1204.27 2512.94 1207.93 2510.81 1219.53 2508.56 1231 2505.5 1242.4 2501.06 1259 2498.49 1275.95 2495.72 1292.89 2493.64 1305.44 2490.99 1317.38 2487.41 1329.6 2486.41 1335.18 2485.51 1340.77 2484.7 1346.38 2484.09 1350.53 2484.09 1350.53 2483.47 1354.76 2483.18 1356.83 2482.89 1358.9 2482.59 1361.04 2481.79 1358.64 2481 1356.25 2480.18 1353.78 2478.8 1354.52 2477.42 1355.25 2476 1356 2461.72 1363.4 2447.25 1369.44 2432.21 1375.08 2423.97 1378.25 2415.98 1381.78 2407.97 1385.46 2402.95 1387.66 2397.9 1389.56 2392.75 1391.42 2386.86 1393.55 2382.37 1395.69 2376.92 1398.97 2371.65 1402.15 2371.65 1402.15 2364.41 1402.15 2360.42 1397.88 2360.42 1397.88 2355.97 1391.87 2348.28 1381.85 2340.28 1372.41 2331.7 1363.15 2322.85 1353.58 2314.05 1343.97 2305.6 1334.03 2301.75 1329.54 2301.75 1329.54 2297.44 1325.4 2284.35 1312.05 2278.63 1296.59 2272.33 1279.31 2268.75 1269.66 2264.85 1260.12 2261.01 1250.56 2259.35 1246.43 2257.7 1242.29 2256.05 1238.15 2255.23 1236.08 2254.4 1234.01 2253.55 1231.88 2251.1 1225.72 2248.66 1219.56 2246.22 1213.4 2237.5 1191.42 2228.58 1169.55 2219.38 1147.77 2211.37 1128.8 2203.77 1109.67 2196.21 1090.52 2194.4 1085.93 2192.58 1081.35 2190.77 1076.76 2190.17 1075.26 2189.57 1073.75 2188.96 1072.2 2184.9 1062.06 2180.64 1052.02 2176.29 1042 2170.92 1029.51 2165.87 1016.94 2161.07 1004.22 2160.46 1002.61 2159.84 1000.99 2159.21 999.333 2156.11 991 2153.61 982.93 2152.18 974.145Z" fill="#335CB9" fill-rule="evenodd"/><path d="M1936.99 515.077C1946.44 518.227 1947.85 522.124 1953.14 530.463 1959.46 540.214 1965.86 549.781 1972.77 559.124 1981.87 571.496 1990.58 584.11 1999.24 596.797 2004.87 605.03 2010.56 613.201 2016.44 621.263 2017.55 622.79 2018.66 624.316 2019.8 625.889 2021.91 628.771 2024.03 631.645 2026.16 634.507 2036.42 648.551 2036.42 648.551 2036.03 655.062 2031.75 660.193 2027.63 664.457 2022.74 668.94 2020.05 671.512 2017.36 674.089 2014.68 676.67 2013.36 677.923 2012.05 679.175 2010.69 680.465 2001.79 689.136 1993.51 698.523 1986.37 708.687 1984.64 710.815 1984.64 710.815 1982.88 712.987 1981.29 712.987 1979.7 712.987 1978.05 712.987 1977.49 714.343 1976.93 715.7 1976.34 717.097 1972.45 724.01 1967.62 728.608 1961.9 734.105 1953.08 742.736 1944.74 751.5 1936.7 760.852 1914.35 786.564 1891.03 811.995 1866.93 836.077 1865.86 835.069 1864.79 834.06 1863.69 833.021 1858.73 828.355 1853.77 823.693 1848.81 819.031 1847.13 817.446 1845.45 815.861 1843.72 814.228 1833.82 804.935 1823.77 795.868 1813.52 786.972 1806.63 780.949 1799.94 774.73 1793.25 768.498 1777.95 754.328 1762.59 740.307 1746.15 727.468 1750.05 717.992 1756.55 711.262 1763.51 703.936 1764.77 702.588 1766.03 701.24 1767.33 699.851 1771.53 695.369 1775.75 690.903 1779.97 686.438 1786.16 679.854 1792.35 673.265 1798.54 666.677 1800.86 664.204 1800.86 664.204 1803.23 661.68 1813.18 651.087 1823 640.389 1832.68 629.55 1838.9 622.614 1845.21 615.758 1851.53 608.903 1858.68 601.142 1865.77 593.353 1872.67 585.371 1881.93 574.685 1891.63 564.406 1901.28 554.073 1909.85 544.886 1918.26 535.601 1926.44 526.06 1929.81 522.237 1933.34 518.642 1936.99 515.077Z" fill="#2557B1" fill-rule="evenodd"/><path d="M2492.66 1001.15C2510.37 1002.86 2527.31 1006.95 2544.59 1011.1 2551.03 1012.63 2557.47 1014.15 2563.91 1015.66 2565.57 1016.05 2567.23 1016.44 2568.95 1016.85 2588.16 1021.35 2607.43 1025.59 2626.71 1029.8 2628.37 1030.16 2630.03 1030.53 2631.74 1030.9 2646.54 1034.14 2661.27 1037.37 2676.23 1039.75 2674.69 1047.43 2671.98 1053.12 2667.92 1059.8 2666.7 1061.8 2665.49 1063.8 2664.24 1065.87 2662.97 1067.95 2661.69 1070.03 2660.38 1072.17 2659.17 1074.16 2657.96 1076.16 2656.71 1078.22 2648.01 1092.54 2639.2 1106.8 2630.41 1121.06 2625.71 1128.68 2621.03 1136.31 2616.35 1143.93 2596.85 1175.72 2577.07 1207.29 2556.95 1238.7 2552.01 1246.44 2547.11 1254.22 2542.22 1262 2529.72 1281.86 2517.06 1301.6 2504.28 1321.27 2502.69 1323.74 2501.09 1326.21 2499.45 1328.75 2497.97 1331.02 2496.49 1333.29 2494.97 1335.62 2492.99 1338.67 2492.99 1338.67 2490.97 1341.78 2489.93 1343.22 2488.9 1344.67 2487.83 1346.15 2487.03 1346.15 2486.23 1346.15 2485.41 1346.15 2484.97 1333.8 2486.5 1323.03 2489.64 1311.17 2494.53 1291.7 2498.08 1272.11 2501.37 1252.32 2503.4 1240.15 2505.66 1228.12 2508.42 1216.1 2510.86 1205.34 2512.84 1194.49 2514.93 1183.66 2516.8 1174.93 2519.09 1166.52 2521.64 1157.97 2484.71 1177.63 2448.35 1198.09 2412.27 1219.27 2402.57 1224.94 2392.83 1230.54 2383.06 1236.08 2380.69 1237.43 2380.69 1237.43 2378.27 1238.82 2367.63 1244.82 2367.63 1244.82 2362.23 1244.82 2366.29 1229.99 2373.86 1217.18 2381.25 1203.81 2383.34 1200 2383.34 1200 2385.46 1196.11 2388.36 1190.83 2391.25 1185.56 2394.16 1180.28 2398.25 1172.82 2402.33 1165.34 2406.38 1157.85 2426.73 1120.37 2426.73 1120.37 2436.65 1103.68 2443.93 1091.42 2450.22 1078.77 2456.51 1065.98 2462.01 1055 2467.96 1044.29 2473.94 1033.57 2474.97 1031.73 2475.99 1029.89 2477.05 1028 2482.11 1018.96 2487.26 1009.99 2492.66 1001.15Z" fill="#2D97D2" fill-rule="evenodd"/><path d="M1745.83 728.109C1757.56 733.069 1766.56 741.568 1775.44 750.461 1783.19 758.189 1791.15 765.65 1799.16 773.097 1800.75 774.575 1802.33 776.053 1803.97 777.575 1826.8 801.132 1826.8 801.132 1852.67 820.273 1859.53 824.445 1862.77 827.312 1866.69 834.391 1868.47 850.712 1864.3 867.584 1861.55 883.606 1860.8 888.448 1860.06 893.291 1859.33 898.136 1857.81 908.143 1856.23 918.139 1854.6 928.129 1851.18 949.121 1848.16 970.168 1845.11 991.215 1844.2 997.437 1843.27 1003.65 1842.32 1009.87 1839.25 1030.26 1836.56 1050.51 1835.27 1071.11 1833.25 1070.63 1831.24 1070.15 1829.16 1069.65 1814.49 1066.16 1799.8 1063.05 1784.96 1060.39 1771.11 1057.87 1757.39 1054.97 1743.72 1051.63 1742.06 1051.24 1740.41 1050.85 1738.7 1050.45 1727.07 1047.53 1727.07 1047.53 1721.66 1042.12 1720.63 1030.9 1721.32 1019.57 1721.66 1008.31 1721.71 1006.59 1721.75 1004.88 1721.8 1003.11 1722.84 968.498 1725.95 934.049 1729.01 899.571 1729.17 897.771 1729.33 895.971 1729.5 894.117 1729.66 892.327 1729.81 890.536 1729.98 888.691 1731.45 871.961 1732.68 855.217 1733.9 838.466 1735.24 820.179 1737.05 802.21 1739.94 784.099 1741.59 772.139 1742.19 760.154 1742.82 748.103 1743.34 741.222 1744.29 734.824 1745.83 728.109Z" fill="#382899" fill-rule="evenodd"/><path d="M2480.23 1354.2C2478.78 1370.53 2475.72 1385.76 2471.57 1401.61 2470.96 1404.01 2470.34 1406.41 2469.7 1408.89 2468.4 1413.95 2467.09 1419.01 2465.77 1424.07 2463.79 1431.71 2461.82 1439.36 2459.86 1447 2453.9 1470.11 2447.88 1493.17 2441.03 1516.04 2439.31 1522.33 2438.26 1528.43 2437.3 1534.86 2434.58 1547.62 2425.93 1553.37 2415.75 1560.73 2412.37 1563.29 2408.98 1565.86 2405.6 1568.44 2404.1 1569.54 2402.6 1570.64 2401.06 1571.77 2395.81 1575.64 2395.81 1575.64 2392.16 1579.45 2383.01 1588.29 2376.71 1592.05 2363.92 1592.2 2362.11 1592.15 2360.3 1592.1 2358.43 1592.04 2356.47 1592.05 2354.51 1592.05 2352.49 1592.05 2346.07 1592.04 2339.66 1591.93 2333.24 1591.81 2328.77 1591.79 2324.29 1591.77 2319.82 1591.75 2308.09 1591.7 2296.36 1591.56 2284.64 1591.4 2272.65 1591.25 2260.67 1591.18 2248.68 1591.11 2225.2 1590.95 2201.71 1590.71 2178.23 1590.4 2194.12 1574.48 2209.98 1559.22 2228.96 1547.02 2231.86 1544.59 2234.73 1542.13 2237.57 1539.64 2242.4 1535.4 2246.66 1532.09 2252.22 1528.79 2259.32 1524.5 2264.32 1519.26 2270.03 1513.28 2271.93 1511.49 2273.82 1509.7 2275.77 1507.85 2280.8 1502.6 2285.12 1497.48 2289.51 1491.73 2308.27 1467.25 2329.13 1444.27 2349.62 1421.24 2351.16 1419.5 2352.7 1417.76 2354.29 1415.96 2356.38 1413.62 2356.38 1413.62 2358.5 1411.24 2362.03 1407.31 2362.03 1407.31 2364.26 1402.41 2382.02 1392.37 2400.85 1383.66 2420.28 1377.4 2437.19 1371.91 2453.85 1365.2 2469.66 1357.06 2475.4 1354.2 2475.4 1354.2 2480.23 1354.2Z" fill="#3B2A9C" fill-rule="evenodd"/><path d="M2038.16 655.098C2049.68 664.657 2060.34 674.689 2070.76 685.431 2075.69 690.234 2080.69 694.76 2085.88 699.263 2098.22 709.969 2110.01 721.229 2121.85 732.484 2131.65 741.758 2141.6 750.778 2151.78 759.615 2159.79 766.653 2167.51 773.982 2175.25 781.302 2178.65 784.495 2182.05 787.687 2185.44 790.878 2187.93 793.208 2187.93 793.208 2190.46 795.585 2210.8 814.677 2231.55 833.085 2253.16 850.744 2251.94 860.823 2249.43 865.209 2241.99 872.029 2235.39 878.292 2229.15 884.564 2223.27 891.504 2214.74 901.427 2205.5 910.516 2196.19 919.705 2189.63 926.355 2183.53 933.295 2177.46 940.396 2171.97 946.611 2166.08 952.372 2160.11 958.125 2156 962.183 2156 962.183 2151.7 969.098 2150.11 969.098 2148.51 969.098 2146.87 969.098 2146.19 967.171 2145.51 965.245 2144.81 963.26 2141.58 954.083 2138.34 944.908 2135.09 935.736 2134.5 934.051 2133.9 932.366 2133.29 930.63 2124.93 907.042 2116.38 883.541 2107.61 860.103 2100.13 840.082 2093.03 820.009 2086.41 799.688 2078.63 776.04 2070.14 752.643 2061.71 729.22 2060.96 727.133 2060.21 725.047 2059.44 722.897 2057.27 716.861 2055.1 710.826 2052.92 704.792 2052.27 702.993 2051.62 701.193 2050.95 699.339 2050.33 697.616 2049.71 695.893 2049.07 694.118 2048.47 692.456 2047.87 690.793 2047.25 689.08 2045.99 685.651 2044.68 682.238 2043.33 678.84 2039.96 670.288 2038.16 664.419 2038.16 655.098Z" fill="#2C99D3" fill-rule="evenodd"/><path d="M2195.18 445.151C2180.69 464.614 2165.86 483.812 2151.05 503.031 2136.85 521.472 2122.74 539.978 2108.65 558.501 2099.49 570.533 2090.33 582.554 2081.14 594.558 2057.92 624.331 2057.92 624.331 2036.04 655.066 2034.71 652.637 2033.38 650.208 2032.01 647.705 2026.59 638.207 2020.31 629.561 2013.74 620.835 2003.9 607.598 1994.54 594.159 1985.49 580.363 1978.92 570.542 1972.03 560.966 1965.12 551.378 1958.1 541.599 1951.33 531.686 1944.79 521.57 1941.94 517.178 1941.94 517.178 1937.18 512.71 1968.91 503.142 2000.76 494.199 2032.88 486.018 2053.95 480.648 2074.98 475.198 2095.87 469.128 2115.27 463.5 2134.71 458.023 2154.19 452.691 2156.89 451.941 2159.58 451.192 2162.36 450.419 2164.88 449.732 2167.41 449.045 2170.02 448.337 2172.26 447.721 2174.5 447.106 2176.81 446.472 2183.12 445.151 2188.75 444.905 2195.18 445.151Z" fill="#1F8DCC" fill-rule="evenodd"/><path d="M2495.32 1001.15C2515.72 1004.55 2535.82 1009.05 2555.95 1013.74 2595.92 1023.04 2636 1031.61 2676.23 1039.69 2675.33 1044.3 2675.33 1044.3 2673.82 1049.32 2668.91 1052.63 2668.91 1052.63 2661.76 1056.55 2654.88 1061.28 2648.15 1066.23 2641.4 1071.15 2637.49 1073.99 2633.57 1076.83 2629.65 1079.67 2627.73 1081.06 2625.8 1082.46 2623.81 1083.9 2616.39 1089.27 2608.92 1094.6 2601.45 1099.91 2588.05 1109.44 2574.69 1119.04 2561.35 1128.66 2559.49 1130 2557.63 1131.34 2555.71 1132.72 2553.96 1133.98 2552.21 1135.25 2550.4 1136.55 2548.85 1137.67 2547.29 1138.8 2545.69 1139.95 2542.43 1142.33 2539.23 1144.81 2536.08 1147.34 2531.5 1150.49 2531.5 1150.49 2526.07 1149.74 2524.68 1149.19 2523.29 1148.64 2521.85 1148.08 2516.01 1122.86 2511.5 1097.45 2507.11 1071.94 2504.21 1055.35 2500.83 1039.02 2496.69 1022.68 2495.26 1015.33 2495.08 1008.61 2495.32 1001.15Z" fill="#28AFDE" fill-rule="evenodd"/><path d="M2671.25 1049.16C2668.11 1057.54 2664.44 1064.98 2659.75 1072.61 2658.41 1074.79 2657.08 1076.97 2655.7 1079.21 2654.26 1081.55 2652.82 1083.88 2651.33 1086.28 2648.26 1091.29 2645.18 1096.3 2642.11 1101.32 2640.53 1103.88 2638.96 1106.44 2637.33 1109.08 2632.83 1116.43 2628.35 1123.79 2623.89 1131.16 2607.33 1158.5 2590.52 1185.66 2573.36 1212.63 2568.64 1220.08 2563.93 1227.54 2559.23 1235 2497.77 1332.46 2497.77 1332.46 2487.75 1346.16 2486.95 1346.16 2486.15 1346.16 2485.33 1346.16 2484.89 1333.8 2486.42 1323.02 2489.56 1311.14 2494.44 1291.66 2497.99 1272.06 2501.28 1252.25 2503.31 1240.07 2505.57 1228.03 2508.32 1216 2510.1 1208.2 2511.67 1200.36 2513.25 1192.53 2513.85 1189.56 2514.45 1186.59 2515.07 1183.53 2516.89 1174.74 2516.89 1174.74 2517.39 1165.76 2519.65 1155.49 2522.51 1153.9 2531.21 1148.16 2534.48 1145.73 2537.73 1143.29 2540.98 1140.84 2544.76 1138.04 2548.55 1135.25 2552.34 1132.46 2555.38 1130.22 2555.38 1130.22 2558.48 1127.94 2573.11 1117.2 2587.87 1106.66 2602.73 1096.22 2615.92 1086.96 2629.05 1077.59 2642.13 1068.17 2644.94 1066.15 2644.94 1066.15 2647.81 1064.1 2650.41 1062.22 2650.41 1062.22 2653.06 1060.31 2654.59 1059.2 2656.13 1058.09 2657.71 1056.96 2667.92 1049.16 2667.92 1049.16 2671.25 1049.16Z" fill="#2D7CC5" fill-rule="evenodd"/><path d="M2378.7 602.09C2382.94 609.593 2384.54 616.061 2385.68 624.584 2386.04 627.184 2386.39 629.784 2386.76 632.463 2387.32 636.692 2387.32 636.692 2387.89 641.007 2388.72 647.06 2389.55 653.112 2390.38 659.164 2390.6 660.759 2390.82 662.352 2391.04 663.995 2393.55 682.351 2396.26 700.678 2398.97 719.006 2399.78 724.545 2400.6 730.084 2401.42 735.623 2402.68 744.208 2403.94 752.793 2405.21 761.378 2402.85 762.84 2400.48 764.303 2398.05 765.809 2379.76 777.167 2361.65 788.735 2343.78 800.755 2331.04 809.322 2318.17 817.668 2305.23 825.938 2299.24 829.771 2293.27 833.649 2287.33 837.553 2285.78 838.562 2284.24 839.572 2282.64 840.612 2279.67 842.557 2276.7 844.51 2273.73 846.472 2263.57 853.09 2263.57 853.09 2258.21 853.09 2262.09 840.072 2267.76 828.294 2273.74 816.152 2274.81 813.97 2275.88 811.788 2276.97 809.54 2280.45 802.432 2283.94 795.329 2287.43 788.228 2289.84 783.312 2292.25 778.397 2294.66 773.481 2351.32 657.924 2351.32 657.924 2370.34 623.238 2374.11 616.287 2377.33 609.93 2378.7 602.09Z" fill="#27E0F3" fill-rule="evenodd"/><path d="M2362.54 1250.19C2362.63 1251.73 2362.71 1253.28 2362.8 1254.88 2363.7 1271.08 2364.6 1287.29 2365.51 1303.49 2365.84 1309.53 2366.18 1315.57 2366.51 1321.61 2366.99 1330.31 2367.48 1339.02 2367.97 1347.73 2368.12 1350.4 2368.26 1353.08 2368.41 1355.83 2369.29 1371.33 2370.51 1386.75 2372.21 1402.19 2369.82 1402.19 2367.42 1402.19 2364.96 1402.19 2360.96 1397.93 2360.96 1397.93 2356.5 1391.93 2348.8 1381.93 2340.78 1372.51 2332.18 1363.28 2321.97 1352.28 2311.96 1341.15 2302.13 1329.81 2298.96 1326.19 2295.78 1322.57 2292.61 1318.95 2290.14 1316.13 2287.68 1313.32 2285.21 1310.5 2297.29 1298.16 2310.4 1287.49 2323.88 1276.73 2326.08 1274.95 2326.08 1274.95 2328.32 1273.15 2332.92 1269.45 2337.53 1265.77 2342.15 1262.1 2343.62 1260.92 2345.09 1259.74 2346.6 1258.52 2357.15 1250.19 2357.15 1250.19 2362.54 1250.19Z" fill="#3847B2" fill-rule="evenodd"/><path d="M1881.14 575.086C1881.14 584.659 1877.9 586.756 1871.54 593.664 1869.75 595.617 1867.97 597.57 1866.14 599.583 1864.75 601.069 1863.36 602.555 1861.94 604.086 1860.35 603.288 1858.77 602.491 1857.14 601.669 1865.06 592.897 1872.98 584.124 1881.14 575.086Z" fill="#3B74BD" fill-rule="evenodd"/><path d="M2190.18 442.068C2194.03 442.284 2197.88 442.551 2201.72 442.839 2204.93 443.054 2204.93 443.054 2208.21 443.272 2215.25 444.694 2218.82 447.191 2224.18 451.939 2217.47 454.58 2213.16 454.809 2206.37 452.372 2200.91 449.878 2195.52 447.289 2190.18 444.535 2190.18 443.721 2190.18 442.907 2190.18 442.068Z" fill="#35DDF1" fill-rule="evenodd"/><path d="M1723.62 1039.16C1724.44 1041.64 1725.27 1044.11 1726.12 1046.66 1733.54 1047.9 1733.54 1047.9 1741.12 1049.16 1738.64 1049.99 1736.17 1050.81 1733.62 1051.66 1733.62 1054.14 1733.62 1056.61 1733.62 1059.16 1726.12 1056.66 1726.12 1056.66 1721.12 1049.16 1722.06 1043.69 1722.06 1043.69 1723.62 1039.16Z" fill="#4F2495" fill-rule="evenodd"/><path d="M2635.26 713.11C2641.81 715.732 2644.74 717.233 2648.38 723.423 2649 724.97 2649.62 726.517 2650.26 728.111 2646.13 727.285 2642.01 726.46 2637.76 725.61 2636.93 721.485 2636.11 717.36 2635.26 713.11Z" fill="#28EFF9" fill-rule="evenodd"/></g></svg>